<svg width="54" height="53" viewBox="0 0 54 53" fill="none" xmlns="http://www.w3.org/2000/svg">
<path d="M26.7239 33.7408C25.7982 33.7408 24.9003 33.5585 24.0552 33.1967C23.2393 32.8489 22.5054 32.3496 21.8757 31.7143C21.246 31.079 20.7512 30.3385 20.4065 29.5153C20.0493 28.6626 19.8672 27.7566 19.8672 26.8226C19.8672 25.8885 20.0479 24.9826 20.4065 24.1299C20.7512 23.3066 21.246 22.5661 21.8757 21.9308C22.5054 21.2955 23.2393 20.7963 24.0552 20.4484C24.9003 20.088 25.7982 19.9043 26.7239 19.9043C27.6496 19.9043 28.5476 20.0866 29.3927 20.4484C30.2086 20.7963 30.9425 21.2955 31.5721 21.9308C32.2018 22.5661 32.6966 23.3066 33.0413 24.1299C33.3985 24.9826 33.5806 25.8885 33.5806 26.8226C33.5806 27.7566 33.3999 28.6626 33.0413 29.5153C32.6966 30.3385 32.2018 31.079 31.5721 31.7143C30.9425 32.3496 30.2086 32.8489 29.3927 33.1967C28.5476 33.5585 27.6496 33.7408 26.7239 33.7408ZM26.7239 21.6938C23.937 21.6938 21.6686 23.9812 21.6686 26.7945C21.6686 27.4817 21.802 28.1493 22.0647 28.7776C22.3191 29.3848 22.6819 29.9304 23.1461 30.3988C24.0996 31.3637 25.3715 31.8952 26.7239 31.8952C29.5108 31.8952 31.7792 29.6078 31.7792 26.7945C31.7792 23.9812 29.5122 21.6938 26.7239 21.6938Z" fill="black"/>
<path d="M21.3721 39C20.4186 39 19.4928 38.8135 18.6199 38.4446C17.7776 38.0884 17.0201 37.5793 16.3682 36.93C15.7177 36.2821 15.2062 35.5276 14.849 34.6903C14.4806 33.8236 14.293 32.9036 14.293 31.9555V21.0445C14.293 20.0978 14.4806 19.1778 14.8517 18.3097C15.2103 17.4711 15.7219 16.7179 16.3738 16.0686C17.0256 15.4207 17.7832 14.9102 18.6255 14.554C19.4984 14.1865 20.4227 14 21.3721 14H32.2139C33.166 14 34.0917 14.1879 34.966 14.5582C35.8083 14.9158 36.5658 15.4263 37.2177 16.0756C37.8682 16.725 38.3798 17.4781 38.737 18.3167C39.1067 19.1834 39.2944 20.102 39.2944 21.0459V31.9569C39.2944 32.9036 39.1067 33.8236 38.737 34.6917C38.3798 35.5304 37.8682 36.2835 37.2177 36.9314C36.5658 37.5793 35.8097 38.0898 34.966 38.446C34.0931 38.8149 33.1674 39.0014 32.2139 39.0014H21.3721V39ZM22.2617 15.4529C21.3874 15.4529 20.5367 15.6254 19.7361 15.9676C18.9633 16.2972 18.2669 16.7698 17.6706 17.3687C17.0729 17.9689 16.6031 18.6673 16.2751 19.4443C15.9345 20.2493 15.7622 21.1034 15.7622 21.9827V31.1828C15.7622 32.0621 15.9345 32.9162 16.2751 33.7212C16.6031 34.4982 17.0729 35.1966 17.6706 35.7968C18.2683 36.3971 18.9633 36.8683 19.7375 37.1979C20.5395 37.5387 21.3888 37.7126 22.2631 37.7126H31.3257C32.2 37.7126 33.0506 37.5401 33.8512 37.1979C34.6241 36.8683 35.3204 36.3971 35.9181 35.7968C36.5158 35.1966 36.9856 34.4982 37.3137 33.7212C37.6542 32.9162 37.8265 32.0621 37.8265 31.1828V21.9827C37.8265 21.1034 37.6542 20.2493 37.3137 19.4443C36.9856 18.6673 36.5158 17.9689 35.9181 17.3687C35.3204 16.7684 34.6255 16.2972 33.8512 15.9676C33.0492 15.6268 32.2 15.4529 31.3257 15.4529H22.2617Z" fill="#222222"/>
<path d="M33.6587 20.6139C33.1889 20.6139 32.8066 20.2283 32.8066 19.7542C32.8066 19.2802 33.1889 18.8945 33.6587 18.8945C34.1285 18.8945 34.5107 19.2802 34.5107 19.7542C34.5107 20.2283 34.1285 20.6139 33.6587 20.6139Z" fill="black"/>
</svg>
