<svg viewBox="0 0 34 22" fill="none" xmlns="http://www.w3.org/2000/svg">
<path d="M28.2106 14.0054C29.2684 15.1284 30.3847 16.1849 31.3334 17.4211C31.7525 17.9705 32.1492 18.5373 32.4527 19.1749C32.8828 20.0811 32.4933 21.0784 31.746 21.1326L27.1006 21.1303C25.9025 21.2383 24.9467 20.7139 24.1431 19.8231C23.4999 19.1107 22.9043 18.3525 22.2859 17.6161C22.0323 17.3151 21.767 17.0319 21.45 16.808C20.8158 16.3604 20.2654 16.4974 19.903 17.2166C19.5339 17.9482 19.4501 18.7582 19.4139 19.5734C19.3641 20.7629 19.0335 21.0757 17.9347 21.1301C15.5865 21.2505 13.3579 20.8642 11.2876 19.5761C9.4623 18.4405 8.04695 16.8372 6.81496 15.0223C4.41641 11.4883 2.5795 7.60485 0.928619 3.61266C0.557002 2.71322 0.828786 2.23041 1.74142 2.21328C3.25685 2.18125 4.77209 2.18355 6.28932 2.21098C6.90526 2.2208 7.313 2.60493 7.55084 3.23767C8.37074 5.42996 9.37399 7.51572 10.6333 9.44904C10.9686 9.96374 11.3106 10.4785 11.7975 10.8408C12.3362 11.2419 12.7464 11.1089 12.9998 10.4564C13.1606 10.0426 13.231 9.59688 13.2673 9.15376C13.3874 7.62909 13.4032 6.107 13.1926 4.58768C13.0633 3.63948 12.5722 3.02563 11.7021 2.84623C11.2581 2.75473 11.3242 2.57506 11.5392 2.29949C11.9125 1.82421 12.2637 1.52832 12.9638 1.52832H18.2138C19.0403 1.70569 19.2238 2.10946 19.337 3.01378L19.3415 9.35524C19.3324 9.7053 19.5023 10.7443 20.0821 10.9759C20.5462 11.1409 20.8521 10.7371 21.1307 10.4171C22.3876 8.96644 23.2848 7.25194 24.0862 5.47662C24.4419 4.69597 24.7477 3.88531 25.0441 3.07527C25.2637 2.47422 25.6083 2.17847 26.2309 2.19154L31.2837 2.19642C31.4336 2.19642 31.5851 2.19879 31.7302 2.22581C32.5817 2.38361 32.815 2.78189 32.552 3.686C32.1377 5.10448 31.3315 6.2866 30.5432 7.47414C29.7006 8.742 28.7993 9.96651 27.9638 11.2419C27.196 12.4067 27.257 12.9938 28.2106 14.0054Z" stroke="#222222" stroke-width="1.5"/>
</svg>
