<svg viewBox="0 0 30 21" fill="none" xmlns="http://www.w3.org/2000/svg">
<path d="M14.8923 0.995117C14.8923 0.995117 6.50482 0.995125 4.39968 1.54214C3.27252 1.85708 2.34438 2.78522 2.02944 3.92896C1.48243 6.0341 1.48242 10.3937 1.48242 10.3937C1.48242 10.3937 1.48243 14.7698 2.02944 16.8418C2.34438 17.9855 3.25594 18.8971 4.39968 19.2121C6.5214 19.7756 14.8923 19.7757 14.8923 19.7757C14.8923 19.7757 23.2964 19.7757 25.4015 19.2286C26.5452 18.9137 27.4568 18.0187 27.7551 16.8584C28.3187 14.7698 28.3187 10.4103 28.3187 10.4103C28.3187 10.4103 28.3353 6.0341 27.7551 3.92896C27.4568 2.78522 26.5452 1.87367 25.4015 1.5753C23.2964 0.995144 14.8923 0.995117 14.8923 0.995117ZM12.2235 6.3658L19.2021 10.3937L12.2235 14.405V6.3658Z" stroke="#222222" stroke-width="1.5"/>
</svg>
